<?xml version="1.0" encoding="utf-8"?>
<svg xmlns="http://www.w3.org/2000/svg" xmlns:svg="http://www.w3.org/2000/svg" version="1.1" viewBox="0 0 185 164">
  <title>A squiggly line that indicates the corporal’s flourish.</title>
  <path d="M53.88 135.38c-.11 2.95-.76 5.25-2.7 7.63-8.33 10.29-24.3 2.84-35.14 1.96-4.55-.36-10.81-.6-14.18 3.16-3.2 3.57-2.1 9.32 2.01 11.68 4.72 2.7 12.02 2.47 17.2 1.41 1.96-.4 4.18-.69 5.55-2.3-1.93-.23-3.93 1.18-5.82 1.6-4.37.94-10.98 1.27-15.07-.83-2.63-1.35-4.95-4.57-4.32-7.64 1.46-7.1 10.52-6.65 15.95-5.5 8.95 1.9 18.8 7.13 28.05 3.88 1.99-.7 3.42-2.01 5.04-3.23a12.13 12.13 0 004.23-5.73c5.1-14.15-12.47-19.6-21.97-24.35-3.78-1.9-9.1-4.52-9.13-9.52-.03-4.94 7.6-5.07 10.72-3.85 6.92 2.71 12.63 7.5 20.1 8.82 3.72.66 8.62-.9 10-4.7.85-2.39.17-4.45-.89-6.57-2.7-5.45-10.39-8.12-15.19-11.43-2.7-1.87-6.66-4.69-4.84-8.46 2.07-4.28 7.06-4.14 10.66-2.28 1.67.87 3.27 1.87 4.76 3.02 5.48 4.22 18.11 9.57 22.15.58C85.99 71.7 69.6 66.7 62.35 63.16c-3.1-1.52-7.96-4.65-6.94-8.74 1.75-7.06 10.9-5.49 15.93-4.4 5.38 1.18 10.45 4.06 15.83 5.58 2.75.77 6.46 1.24 9.3 1.31 3.1.08 6.42.14 10.01-.62 6.4-.6 13.42-4.47 14.21-11.4.36-3.14-.3-6-1.22-8.98-1.26-4.1-5-6.91-7.32-10.32 2.48-1.01 4.61-2.9 7.34-3.16 3.21-.3 6.95.69 10.06-.2 4.17-1.18 8.66-5.1 12.17-7.6 2.82-2.01 5.99-1.62 9.26-1.07 6.25 1.05 12.37 4.54 18.78 2.4 5.08-1.69 10.8-5.1 13-10.22.36-.84 2.61-5.18 1.24-5.7-.64-.25-.95.8-1.1 1.2-.62 1.78-.87 3.37-1.88 5.02-2.92 4.79-8.53 8.47-14.14 9.06-7.95.82-15.18-4.96-23.31-3.13-4.88 1.1-8.4 5.93-12.7 8.28-4.29 2.34-9.63.53-14.29 1.64-1.84.45-4.12 2.28-5.5 2.68-1.92-.89-3.22-1.26-4.29-1.78-1.45-.71-3.19-1.05-4.76-1.43-7.1-1.7-15.96-.82-22.22 2.84-2.72 1.59-5.43 3.16-6.29 6.45-2.36 9.1 8.18 12.58 15.28 10.98 5.56-1.25 11.1-4.33 15.35-8.11 1.7-1.52 6.87-6.9 6.87-6.9s3.18 2.83 3.86 3.77c3.05 4.17 5.19 10.71 3.52 15.86-1.75 5.4-10.8 6.9-15.58 7.53-8.31 1.1-18.06-1.23-25.93-3.79-7.68-2.5-16.03-4.8-22.1 2.18-2.85 4.34 1.7 8.01 4.72 10.04 5.26 3.55 13.36 5.14 17.7 9.73 2.63 2.79 4.29 6.7 2.05 10.3-2.26 3.62-6.91 3.77-10.57 2.74-5.7-1.6-10.12-6.36-15.6-8.33-2.67-.96-6.2-1.1-8.46.9-4.22 3.68-2.97 7.98.78 11.26 4.64 4.07 10.65 6.11 15 10.59 2.15 2.2 3.82 5.78 1.95 8.75-2.07 3.28-7.79 2.7-10.87 1.63-8.17-2.84-15.22-10.17-24.6-7.53-6.13 1.72-4.56 7.7-1.48 11.21 5.54 6.3 15.91 7.2 22.38 12.53 1.69 1.39 3.54 3.07 4.47 5.06a7.47 7.47 0 011.62 4.11m56.1-109.57c-.68 1.68-2.97 3.17-4.2 4.53-5.17 5.68-11.45 9.01-18.83 10.67-4.46 1-10.5-.69-12.16-5.38-1.65-4.61 3.42-9.1 7.13-10.73 8.41-3.7 19.94-3.7 28.06.91m37.3 137.88l.26.27z"/>
</svg>
