<?xml version="1.0" encoding="utf-8"?>
<svg xmlns="http://www.w3.org/2000/svg" xmlns:svg="http://www.w3.org/2000/svg" version="1.1" viewBox="0 0 239 170">
	<title>Squiggly lines captioned “Inv. T. S. / Scul. T. S.”</title>
	<path d="M68.45 169.14c-.33-.4-.24-2 .3-5.3.46-2.82.42-7.03-.2-22.9-.01-.5-.16-1.4-.32-1.98-.16-.58-.37-1.74-.47-2.58-.16-1.31-.26-1.52-.74-1.54l-2.69-.18c-3.22-.24-7.74-.22-12.43.05-5.43.31-6.1.31-10.78.05-3.8-.2-3.95-.2-6.02.5a9.8 9.8 0 00-2.26.94c-.09.14-.5.25-.93.25-.59 0-.86-.2-1.18-.8a3.55 3.55 0 00-1.55-1.33l-1.13-.53-1.84 1.05a7.46 7.46 0 01-3.02 1.12c-1.13.08-1.22.03-1.72-.9-.5-.94-.5-1-.06-1.76.26-.43.57-1.3.7-1.93.13-.63.4-1.53.58-2 .3-.75.3-.92-.1-1.31-.4-.4-.6-.42-1.71-.12-.7.19-1.35.5-1.47.72-.12.2-.38.38-.58.38-.2 0-.48.18-.6.4-.13.23-.81.83-1.52 1.33-1.03.73-1.53.91-2.53.91-1.46 0-1.73-.25-1.97-1.88-.18-1.2-.17-1.23 1.3-2.75 1.4-1.47 1.46-1.59 1.32-2.62-.15-1.04-.89-2-1.52-2-.32 0-3.83 2.52-4.85 3.48-.47.44-.78.51-1.6.36a5.38 5.38 0 01-1.6-.56 5.3 5.3 0 01-1.64-2.95c0-.57 1.1-1.85 2.38-2.77a8.85 8.85 0 003-5.28c.16-1.47.15-1.5-.76-2.2-1.39-1.05-2.46-1.14-3.71-.28-1.35.9-2.48 2.25-2.5 2.93 0 .3-.13.67-.29.82-.15.16-.24.8-.2 1.45.07.98.18 1.17.7 1.24.8.12 1.82-.82 2.04-1.85.2-.92.75-.85.87.11.06.55-.17.87-1.14 1.62-1.54 1.17-2.63 1.44-3.31.83-1.37-1.24-.61-5.63 1.26-7.31 1.5-1.37 2.79-2.07 4.06-2.23 1.02-.13 1.35-.03 2.67.8 1.44.91 1.52 1.02 1.8 2.47.16.83.35 1.66.4 1.84.16.47-.3 1.56-.92 2.24-.3.31-.54.64-.54.72 0 .08-.89.92-1.98 1.87-1.35 1.16-1.99 1.9-1.99 2.3 0 .32-.12.65-.26.74-.55.34-.24 1.17.66 1.72 1.2.75 2.06.48 4.35-1.37 1.45-1.18 1.88-1.39 3.04-1.47 1.63-.12 3.06.62 3.06 1.58 0 1.08-.66 2.5-1.65 3.6-1.47 1.63-1.66 2.93-.53 3.68.57.38.68.3 2.58-1.56 1.17-1.15 2.23-1.96 2.58-1.98a6.46 6.46 0 001.62-.49c1.19-.5 2.13-.37 3 .46.8.73.76 1.33-.15 2.66-1.05 1.53-1.21 2.2-.82 3.4.27.83.46 1.01 1.02 1.01.8 0 2-.72 2.57-1.54.22-.32.63-.57.93-.57.55 0 2.52 1.23 3.12 1.96.51.61.94.53 2.44-.5l1.35-.94 5.2-.03c2.85-.01 7.09-.07 9.42-.12 4.19-.1 17.77.32 19.33.59l.8.14.34 5.07c.47 7.15.7 25.08.33 25.78-.22.4-.2.6.07.83.59.49 1.08-.4 1.13-2.06.05-1.65.51-5.36.76-6.13.2-.66.95-6.14 1.05-7.79.05-.73.14-1.5.22-1.72.07-.22.21-2.66.31-5.42l.23-6.26c.06-1.38.56-2.19 1.2-1.94.23.1 2.56.22 5.18.29 5.16.13 5.7.28 6.42 1.74.57 1.16 1.04 1.4 2.02 1.05.47-.17 1.1-.3 1.38-.3.3 0 .95-.56 1.57-1.34l1.05-1.34 2.12.12 5.16.31c3.06.19 4.23.55 4.23 1.32 0 .72 1.1 1.15 2.58 1 1.2-.13 1.46-.26 1.9-.98.52-.84.53-.84 2.45-.76 6.25.28 6.1.29 8.15-.4 2.9-.95 3.48-.9 5.95.6l2.12 1.29 6.34-.06c3.49-.03 6.36-.08 6.38-.11.02-.03-.06-.94-.18-2.01-.3-2.73-.15-2.94 2.12-2.94 1 0 2.43.12 3.2.26.76.15 4.68.34 8.7.43l9.56.22c1.23.03 4.36.07 6.94.1l4.7.05v.64c0 .46-.38.91-1.4 1.65-.76.56-1.51 1.08-1.67 1.15-.16.07-1.16.84-2.22 1.72-4.78 3.94-5.3 4.64-5.3 7.21 0 1.35.1 1.64.73 2.23 1.41 1.3 2.08 1.61 2.7 1.22.5-.3.62-.28.94.14.66.9 2.17.2 4.84-2.26.53-.48.59-.7.42-1.64a9.83 9.83 0 01-.15-1.93 6.52 6.52 0 00-.34-2.01 3.06 3.06 0 01-.06-2.32c.28-.97.5-1.23 1.25-1.5.5-.17 1.45-.26 2.1-.2.66.07 2.6.2 4.32.27 1.72.08 3.42.26 3.79.4 1.2.46 2.25.29 3.38-.55.6-.45 1.69-1.2 2.42-1.66.74-.46 1.87-1.26 2.52-1.78 1.13-.9 2.89-1.84 3.44-1.84.14 0 .7-.29 1.25-.64 1.27-.83 4.85-1.28 8.58-1.07 5.29.3 9.15 1.85 14.3 5.77l2.33 1.76 4.95-.01c2.73-.01 5.79-.11 6.8-.23l1.86-.22.98.93c.54.52.92 1.04.84 1.16-.08.13-3.49.22-7.58.2-7.36-.02-7.45-.03-8.73-.67-1.57-.8-4.6-2.77-5.48-3.57-.81-.74-4.41-2.3-6.36-2.75-.8-.19-2.59-.36-3.97-.38-1.38-.02-2.79-.11-3.13-.2a4.27 4.27 0 00-1.72.17l-2.42.69c-5.2 1.47-7.72 2.92-9.7 5.58-.88 1.21-1.17 1.44-1.64 1.3-.56-.18-6.78-.84-9.8-1.05a4.58 4.58 0 01-1.83-.4c-.52-.52-1.25-.31-1.53.44-.3.79.11 5.76.57 6.9.56 1.4-2.18 4.37-4.65 5.05-3.14.86-5.54-.22-6.9-3.1-.94-1.96-.94-3.34 0-5.18.84-1.67 1-1.82 3.65-3.67 3.43-2.38 4.16-2.97 4.08-3.24-.04-.14-.84-.28-1.78-.3-.93-.02-3.24-.12-5.13-.21-1.9-.1-6.6-.23-10.46-.3-3.85-.05-7.54-.16-8.2-.23a22.4 22.4 0 01-3.68-.57l-.63-.2.15 2.08c.12 1.57.06 2.26-.24 2.84l-.4.77-2.82-.02h-3.49c-.36.01-2.15 0-3.97-.03-3.06-.04-3.35-.09-3.97-.66-1.53-1.43-3.83-2.77-4.77-2.77-1.15 0-1.99.56-2.22 1.48-.17.66-.23.69-1.55.54-.76-.09-2.64-.19-4.19-.22-2.72-.07-2.85-.04-3.92.7-.83.58-1.45.78-2.39.8-1.97.05-4.96-.77-6.06-1.66-.96-.77-.96-.77-4.13-.67-1.75.05-3.56.1-4.04.1-.7.02-.93.18-1.27.9-.6 1.27-2.05 1.87-3.58 1.48-1.9-.49-3.78-1.35-4.25-1.94-.4-.52-.7-.56-4.63-.57l-4.2-.02-.18 1.33c-.56 4.03-1.03 9.45-.94 10.73.15 1.9-.46 7.58-.86 8.06-.17.2-.24.48-.15.63.09.14.03.77-.13 1.4-.15.62-.31 1.44-.35 1.8-.04.36-.21 1.26-.38 1.98-.74 3.3-.84 3.9-.84 5.27 0 1.24-.1 1.53-.6 1.84-.91.57-2.22.73-2.56.32zm156.36-17.07c-.6-1.12.77-2.18 1.57-1.22.17.21.28.66.23 1-.12.83-1.38 1-1.8.22zm-9.74-.07c-.77-.76.08-1.92.9-1.24.5.4.46 1.2-.05 1.4-.53.2-.48.21-.85-.16zm5.5.13c-.77-.15-1.05-.5-1.05-1.33 0-.68.42-.75 1.17-.19.58.44 1.88.52 2.13.13.09-.15-.37-.59-1.03-.98-1.27-.77-1.59-1.37-1.22-2.34.24-.63 1.6-1.23 2.49-1.09.53.09 1.59 1.2 1.35 1.44-.07.08-.61-.02-1.2-.21-.93-.31-1.13-.3-1.48.05-.36.36-.27.47.87 1.04 1.09.53 1.29.76 1.36 1.48.06.64-.1 1.03-.58 1.53-.66.65-1.27.75-2.81.47zm-20.6-.43c-.22-.26-.17-.8.2-2.11.26-.97.43-2.04.36-2.39-.13-.68.4-1.06.99-.7.29.18.29.5 0 1.82-.27 1.31-.27 1.69 0 2.02.29.34.24.52-.27 1.06-.7.75-.88.8-1.28.3zm2.78.18c-.1-.1-.17-.45-.17-.8 0-.7.56-.81 1.06-.21.48.58-.35 1.54-.89 1.01zm6.62 0c-.31-.3-.19-.88.18-.88.51 0 1.64-3.14 1.26-3.52-.2-.2-.42-.15-.77.16-.66.6-1.11.56-1.11-.07 0-.9.99-1.24 3.24-1.13 1.73.09 2.1.19 2.34.64.43.8-.1 1.2-.9.67-.34-.22-.76-.33-.92-.22-.5.3-.95 2.9-.63 3.6.15.34.2.68.11.77-.21.21-2.58.2-2.8-.02zm-21.54-.27c-.64-.09-.9-.28-1.02-.75-.26-1.02.1-1.26.97-.64.43.3 1.04.51 1.37.47 1.01-.15.81-.84-.46-1.6-1.39-.84-1.56-1.62-.56-2.56.5-.46.88-.57 1.78-.5.97.06 1.17.17 1.24.67.1.66-.23.75-.98.29-.59-.37-1.35-.13-1.35.42 0 .22.35.58.79.8 1.32.7 1.67 1.8.86 2.75-.51.6-1.35.81-2.64.65zm7.87-.22c-.2-.23-.27-.71-.18-1.17.1-.48.04-.81-.16-.88-.44-.15.5-1.52 1.04-1.52.36 0 .4.2.27 1.2-.22 1.55.38 1.63.99.12.4-1 1.04-1.57 1.4-1.23.08.1 0 .52-.18.96-.27.64-.27.89 0 1.2.26.32.24.53-.11 1.06-.51.78-.63.8-1.25.23-.44-.39-.5-.39-.9 0-.52.53-.51.53-.92.03zm-3.7-.26c-.45-.54-.12-2.12.59-2.78.63-.6 1.52-.69 2-.2.5.5.37.78-.3.69-.82-.1-1.5.47-1.5 1.26 0 .57.06.6.66.32.87-.4 1.14-.1.53.58-.57.62-1.52.69-1.98.13zm-157-.04c-.09-.1-.17-.46-.17-.8 0-.47.15-.61.64-.61.73 0 .99.45.64 1.12-.24.47-.78.6-1.1.29zm-9.95-.49c-.44-.52-.15-1.19.5-1.19s.9.38.68 1.06c-.2.63-.73.68-1.18.13zm5.55.2c-.87-.15-1.32-.55-1.32-1.14 0-.78.45-.84 1.55-.2.88.5 1.1.54 1.46.24.64-.53.52-.8-.5-1.23-1.11-.47-1.83-1.47-1.6-2.22.25-.76 1.57-1.38 2.74-1.29.78.07 1.02.22 1.22.8.34.99.03 1.2-.92.64-.85-.5-1.84-.37-1.84.25 0 .21.48.58 1.06.8 1.65.67 1.79 2.36.26 3.15-.77.4-.94.42-2.11.2zm-16.58-.48c-.09-.23.01-.6.23-.81.34-.34.43-.34.73.02.18.22.26.58.18.8-.2.53-.94.52-1.14-.01zm5.64.24c-.31-.32-.18-.88.2-.88.2 0 .56-.56.8-1.24.67-2 .48-3.1-.38-2.07-.41.5-1.06.51-1.06.03 0-.2.21-.62.47-.94.43-.53.6-.55 2.7-.36 1.86.17 2.27.3 2.34.69.05.26.02.66-.06.88-.13.34-.26.32-.86-.15-.38-.3-.74-.52-.79-.47-.05.05-.37.88-.72 1.84-.52 1.42-.57 1.78-.27 1.9.2.07.37.32.37.54 0 .3-.31.4-1.28.4-.7 0-1.36-.08-1.46-.17zm-18-.39c-.45-.27-.44-.32.17-.98.95-1.02 1.7-3.14 1.31-3.75-.4-.63-.17-.8 1.13-.8 1.43 0 1.6.22.85 1.05-.77.84-1.42 3.32-1.01 3.81.66.8-1.3 1.33-2.44.67zm4.21.06c-.08-.14-.02-.57.13-.97.2-.53.2-.78-.03-.92-.42-.26-.05-1.25.6-1.6.42-.23.63-.2.95.11.36.37.47.36 1.02 0 .72-.47.76-.4 1 1.54.1.96.04 1.31-.34 1.65-.87.79-1.18.55-1-.78.21-1.53-.25-1.48-1.01.1-.51 1.06-1 1.38-1.32.87zm4.74-.3c-.4-.45-.44-.64-.18-1.05.22-.35.24-.72.07-1.16-.28-.75.2-1.33.97-1.17.49.1.5.2.2 2.2l-.16 1.06.56-.65c.31-.35.55-.94.52-1.32-.07-1.12 0-1.34.41-1.34.97 0 .2 3.1-.9 3.7-.72.38-.93.34-1.49-.27zm67.9-44.1a3.7 3.7 0 01-1.42-1.4c-.18-.46-.71-.92-1.56-1.32-1.7-.8-3.13-2.28-3.13-3.22 0-.4-.13-1.01-.29-1.36-.21-.48-.17-1.24.16-3.12.25-1.37.44-2.87.43-3.35l-.05-1.58c-.02-.4.05-1.07.16-1.48.1-.41.07-1-.09-1.32a8.05 8.05 0 01-.42-2 7.52 7.52 0 00-.78-2.5 8.85 8.85 0 01-.8-1.82c-.34-1.42-3.6-4.01-5.75-4.59-1.25-.33-1.67-.32-3.31.01-2.44.5-2.64.59-3.13 1.34-.52.8-.53 1.8-.02 2.23.22.19.4.62.4.97s.18.92.4 1.25c.63.97 3.51 2.02 5.53 2.02.86 0 1.48.17 1.93.53.37.29.82.53 1 .53.84 0 2.25 3.14 2.25 5.01 0 .29.2.96.46 1.48.44.93.44.98-.05 1.34-.6.44-3.2.5-3.47.08-.18-.3-1.1-.23-3.55.3-.85.17-2.39.24-3.7.15a328.9 328.9 0 00-8.08-.32c-3.23-.1-5.97-.3-6.15-.44-.27-.22-.25-.37.1-.76.38-.42.39-.55.07-.93-.25-.3-.27-.48-.07-.54.16-.06.52-.27.8-.47.47-.36.47-.4-.2-1.09l-.7-.7-.46.69c-.48.73-1.58.95-1.8.36-.07-.18-.06-.89.01-1.57.13-1.19.1-1.25-.6-1.43-.43-.1-.9-.06-1.16.12-1.56 1.14-1.98 1.32-2.45 1.07-.59-.31-.62-.85-.09-1.3 1.04-.85.1-2.33-1.63-2.56-.96-.13-1.06-.07-1.9 1.08-.97 1.37-1.66 1.55-2.28.6-1.32-2.01-4.64-1.4-4.64.85 0 .66-.13.85-.7 1-.44.1-.95.01-1.42-.27-.4-.24-.93-.43-1.16-.43-.55 0-2.54 1.25-2.54 1.59 0 .14-.17.26-.38.26-.5 0-1.43 1.34-1.64 2.36-.09.45-.3.83-.46.85-.65.06-.86.14-1.82.62-.87.44-1.12.46-1.9.18-.6-.22-2.31-.32-4.96-.3-3.48.04-4.08-.01-4.31-.38-.37-.59.22-.94 1.58-.95.58-.01 1.71-.17 2.51-.36 1.25-.3 5.12-.35 7-.1.36.05.56-.16.72-.77.24-.9 3.3-3.92 4.46-4.4a8.75 8.75 0 012.48-.21c1.8.04 1.84.03 2.6-.9.97-1.17 1.78-1.21 4.88-.26.47.14.66.01 1-.65.4-.76.52-.81 1.89-.81 1.75 0 2.68.43 3.76 1.77.73.9.87.97 1.36.67 1.23-.75 2.92-.06 2.94 1.2 0 1 .57 1.65 1.41 1.65 1.1 0 2.81 1.2 2.81 1.97 0 .35-.12.72-.26.8-.18.11-.18.34-.01.65.3.55 2.7.77 10.51.96 2.59.06 5.93.17 7.42.25 2.8.16 4.06-.11 3.57-.75-.14-.17-.58-1.3-1-2.5-.9-2.63-1.32-2.98-3.7-3.02-1.4-.02-1.71-.1-1.71-.46 0-.42-2.03-1.08-3.35-1.08-.35 0-1.17-.66-2.18-1.75-1.59-1.72-1.62-1.77-1.62-3.27 0-1.33.12-1.67.93-2.73a4.86 4.86 0 011.39-1.35c1.43-.43 4.32-.74 5.8-.62 1.4.11 1.93.3 3.16 1.16a13.11 13.11 0 015.3 6.73c.86 2.2 1.11 3.2 1.2 4.93.07 1.2.03 2.1-.1 2.03-.44-.27-.78.2-.43.62.4.5.33 3.48-.12 4.78-.24.67-.23 1 .01 1.39.18.28.33.8.33 1.14 0 1.32.76 2.5 2.24 3.49.8.53 1.64.9 1.86.82.25-.1.53.12.78.6.46.9 2.02 1.88 2.97 1.88 2.41 0 4.15-1.51 4-3.48-.07-.98-.22-1.23-1.14-1.86a6.3 6.3 0 00-1.98-.9c-2.46-.44-4.81-1.17-5.48-1.68l-1.34-1.03c-.7-.53-1.3-3.09-.84-3.63.15-.19.83-.4 1.52-.49 2.42-.3 11.45-.66 13.35-.54 2.41.15 7.27.27 26.65.65 8.52.16 16.08.34 16.8.4 1.65.1 13.38.33 27 .51 8.42.11 10.81.06 13.05-.27 1.51-.22 3.06-.56 3.44-.75.39-.19 1.42-.49 2.29-.67.87-.18 1.94-.5 2.38-.7.44-.2 1.57-.48 2.51-.62.95-.13 2.02-.35 2.38-.5.37-.14 1.62-.53 2.78-.85 1.17-.32 2.54-.75 3.05-.95.5-.2 1.7-.48 2.64-.64 1.76-.29 3.55-.77 7.89-2.13 1.36-.43 2.85-.78 3.33-.78s1.8-.24 2.96-.54l2.49-.64c.22-.05 1.29-.35 2.38-.66 1.1-.32 2.46-.7 3.04-.84.59-.15 2.5-.67 4.24-1.16 6.57-1.84 8.73-2.32 9.45-2.09.28.09 1.19-.2 2.16-.69 1.78-.9 2.44-.93 2.9-.19.41.64 0 1.23-1.15 1.65-.51.18-1.76.66-2.78 1.05-1.02.4-2.27.84-2.78.99-.5.15-1.04.35-1.19.46-.14.1-1.04.4-1.98.66-.95.26-1.96.57-2.25.69-.98.4-6.1 2.04-10.85 3.49-1.02.3-2.73.9-3.8 1.3-1.08.42-2.1.76-2.29.76-.75 0-12.95 3.62-16.73 4.96-1.87.67-1.48.99 1.07.87 1.49-.07 1.96.25 2.2 1.47.16.87.2.9 1.4.9 1.37 0 1.88-.33 1.88-1.21 0-1 .96-1.35 4.3-1.56 2.48-.15 3.1-.27 3.1-.58 0-.47 2.1-2.45 2.61-2.46.2 0 .67.2 1.06.45.39.26.94.6 1.23.76.31.17.56.62.61 1.1l.08.82 1.77-.14c1.91-.15 3.67.27 4.06.97.12.22.48 1.02.8 1.78.58 1.38.94 1.6 1.92 1.23.23-.09.66-.65.95-1.26 1.23-2.5.88-2.32 4.55-2.4 1.88-.05 3.72-.23 4.27-.43.9-.33 1.02-.31 1.56.23 1.24 1.24-.34 1.64-7 1.75l-1.5.02-.84 1.72c-.92 1.9-1.82 2.91-2.56 2.91-.84 0-1.6-.75-2.08-2.05-.26-.69-.69-1.58-.97-1.98-.46-.68-.62-.73-2.4-.73-2.24 0-3.1-.38-3.4-1.45-.37-1.41-1.84-1.91-3.07-1.05-.48.34-.58.63-.52 1.53l.07 1.1-1.2-.03c-.65-.02-2.17-.18-3.38-.35-2.39-.35-2.96-.18-2.96.85 0 .7-1.74 2.31-2.5 2.31s-2.34-.64-2.72-1.1a2.42 2.42 0 01-.38-1.02c-.09-.63-.2-.67-2.87-.96a62.23 62.23 0 00-4.98-.33c-2.86-.04-2.8-.53.13-1.12 1.83-.37 5.42-1.46 10.27-3.14.73-.25 1.8-.58 2.39-.73.58-.14 2.07-.58 3.3-.95 1.24-.38 3.03-.9 3.97-1.13.95-.24 1.96-.52 2.25-.63l1.46-.52a42.22 42.22 0 017.1-2 7.4 7.4 0 001.85-.55c.39-.2.84-.37 1-.37.17 0 1.12-.34 2.12-.76s2.29-.85 2.86-.95c.58-.1 1.29-.36 1.58-.56.3-.2.86-.38 1.26-.38s.79-.12.88-.26c.09-.15.52-.27.96-.27.88 0 1.82-.4 1.82-.8s-.8-.3-2.32.28c-.77.29-1.65.52-1.95.52-.31 0-1.47.3-2.58.65-1.1.35-2.73.78-3.6.95-.88.17-2.37.52-3.31.79-.95.27-2.32.6-3.04.75-.73.14-2.28.52-3.44.84-1.17.31-2.66.69-3.31.83-1.7.38-6.09 1.56-6.94 1.87-.4.14-.9.2-1.13.1-.22-.08-1.32.2-2.44.64-1.13.43-2.19.79-2.36.79-.3 0-2.43.63-10.81 3.22-1.9.59-4.21 1.38-5.16 1.76l-1.72.7-14.02-.04c-7.72-.02-18.5-.18-23.95-.35-5.46-.16-12.6-.34-15.87-.38a2880.16 2880.16 0 01-31.55-.65c-.5.02-3.35 0-6.88-.07-2.25-.04-5.5.47-6.4 1-.45.27-.47.39-.16 1.13.35.84.52.92 2.62 1.2.64.1 1.4.34 1.7.55.3.2.82.31 1.15.23 1-.26 2.36.39 3.88 1.84 1.85 1.78 2.05 2.58 1.13 4.51-.44.93-1 1.64-1.59 2-.5.31-.95.66-1 .78-.04.12-1.03.29-2.2.37-1.94.14-2.2.1-3.27-.53zm33.78-2.6c-.38-.4-.2-.67.28-.41.34.18.91.13 1.86-.14 1.5-.45 1.76-.99.85-1.81-.5-.45-1.03-.45-2.24.02-.7.27-.5-1 .25-1.65.58-.5.8-.54 1.58-.3 1.29.4 2.1 1.32 1.88 2.16-.33 1.32-1.24 2.02-2.8 2.18-.8.08-1.55.06-1.66-.06zm96.38-2.9c-.28-.32-.28-.56-.04-1.1.28-.6.43-.67 1.3-.53.94.16 1.76.83 1.5 1.24-.06.11-.44.25-.84.32-.4.07-.92.21-1.16.31-.25.1-.56.01-.76-.24zM72.22 62.73c-.8-.4-1.4-1.32-1.4-2.13 0-.22.3-.76.66-1.2.98-1.16.86-1.5-.58-1.59-1.05-.07-1.3-.2-1.7-.87a3.7 3.7 0 01-.48-1.22c-.02-.44-.65-.52-4.65-.57-.87 0-1.68-.15-1.78-.3-.38-.56-.2-.93.65-1.35 1.21-.58 1.56-.9 2.4-2.2.85-1.3.8-1.48-.94-2.8-1.1-.84-1.45-.95-2.76-.95-1.38 0-1.57.07-2.35.92-.73.8-.97.9-1.67.76-1.12-.22-2.15.46-2.15 1.43 0 .4-.07.98-.16 1.28-.16.6-.48.67-6.17 1.13-2.05.17-2.55.3-2.78.7-.16.28-.6.82-1 1.21-.91.89-3.06 1.22-4.75.74-1.25-.36-2.14-.97-1.92-1.32.07-.12-.04-.57-.26-.99-.36-.7-.54-.77-2.2-.88-.98-.07-3.22-.06-4.97.02a79.7 79.7 0 01-6.61-.03c-5.74-.3-8.73-.3-9.3 0-.65.35-1.04.12-1.4-.83-.42-1.08-.36-1.21.44-1.05.4.08.91.13 1.13.1 1.12-.1 2.48-.03 4.63.26 1.3.17 3.45.25 4.76.18 2.6-.15 12 .18 13.85.49.97.16 1.22.32 1.51 1.03.45 1.07.92 1.46 2.12 1.73.87.2 1.05.13 2.01-.74.78-.7 1.03-1.1.94-1.55-.06-.34.04-.66.23-.73a34.2 34.2 0 014.07-.01l3.73.11.25-.67c.15-.38.26-1.02.26-1.44 0-.96.21-1.08 1.87-1.12 1.19-.03 1.39-.12 1.72-.77.53-1.02 1.3-1.38 2.57-1.17.88.14 1.12.07 1.43-.37.65-.92 2.02-.72 3.33.5a4.8 4.8 0 001.78 1.12c.6.08.66.2.61 1.27-.06 1.31-.37 2.06-1.47 3.5-.4.53-.65 1.02-.53 1.09.11.07.92.1 1.79.06 1.85-.08 2.51.18 2.51 1 0 .87 1.73 2.12 3.17 2.3 1.17.13 2.96-.28 3.63-.84.18-.15.31-.68.3-1.17-.02-.5.19-1.32.46-1.83.54-.99.48-.98 3.69-1.01 1.39-.02 11.41.33 13.23.46 1.32.09 3.16-.49 4.3-1.35.49-.36 1.06-.6 1.27-.51.21.08.77-.09 1.24-.37a3.6 3.6 0 011.46-.53c.34 0 .87-.17 1.2-.38 1.38-.9 6.22-1.59 9.72-1.38 3.06.18 5.34.8 7.4 2.02.94.56 1.97 1.09 2.28 1.18.32.1.85.58 1.2 1.08l.62.91 6.97-.04c5.35-.04 7-.13 7.1-.38.17-.45-.4-2.15-1.06-3.16-.65-.98-2.82-2.65-4.28-3.28-2.02-.87-3.63-1.13-4.58-.73-.63.27-1.22.3-2.24.13-.76-.13-3.42-.32-5.9-.42-2.98-.12-4.67-.29-4.92-.5-.22-.19-.47-.27-.55-.19-.2.2-2.32-.89-2.32-1.18 0-.12-.54-.75-1.2-1.38-.67-.64-1.3-1.34-1.42-1.56-.26-.5.1-4.67.45-5.1.14-.18.4-.8.58-1.38.19-.58.6-1.36.93-1.72.33-.36.8-1 1.07-1.4.95-1.5 6.02-3.28 9.78-3.44 1.73-.08 4.55.25 5.56.65 3.48 1.35 6.02 3.06 7.72 5.2.55.68 1.38 1.68 1.86 2.23.47.54 1.03 1.4 1.25 1.92.21.51.83 1.6 1.36 2.4.83 1.25 1 1.77 1.2 3.62.11 1.19.14 2.65.06 3.25-.16 1.18.36 2.55 1.13 2.98.24.13.8.93 1.26 1.77l.83 1.52 5.07.05 5.08.05.17-1.01c.2-1.13.86-1.62 2.65-1.94.58-.1 1.17-.29 1.32-.4.54-.43 2.45.72 3 1.8.29.56.68 1.15.88 1.3.38.32 3.66.6 8.61.74l3.24.1.5-1.14c.3-.66.85-1.34 1.33-1.62.45-.27.9-.7.97-.96.09-.26.52-.67.96-.9.74-.38.9-.38 1.97.03 1.3.5 2.33 1.67 2.6 2.98.1.47.3.92.44 1 .6.38 5.33.92 5.66.65.21-.18 1.22-.22 2.83-.1l2.5.17 1.63-1.25c.9-.68 2.35-1.95 3.22-2.8a9.84 9.84 0 011.82-1.57c.14 0 2.33-2.06 4.88-4.57 6.39-6.27 7.59-7.24 7.59-6.1 0 .58-1.68 3.55-2.36 4.16-.3.28-.55.7-.55.92 0 .24-.48 1.13-1.06 1.98a10 10 0 00-1.06 1.79c0 .2-2.17 3.25-3.98 5.6-.31.4-.5.9-.41 1.13.13.35.76.38 4.62.25 2.46-.08 4.81-.25 5.23-.36.42-.1 1.87-.15 3.23-.1 1.87.09 2.5.2 2.62.5.35.92-1.05 1.12-8.8 1.28-3.05.06-6.32.22-7.27.35-1.08.15-1.9.15-2.2-.01-.47-.24-.46-.3.16-.96.35-.39.87-1.06 1.15-1.5.27-.44 1.2-1.76 2.08-2.94.87-1.18 1.8-2.49 2.04-2.9.61-1.03.9-1.47 2.4-3.62.74-1.06 1.25-2.05 1.2-2.36-.08-.53-.1-.53-.82.05-.4.32-1.55 1.55-2.55 2.74-1 1.18-2.28 2.64-2.84 3.23a136.33 136.33 0 00-6.29 6.95c-.83 1.45-.98 1.5-5.26 1.5-2.21.01-5.5-.05-7.33-.13l-3.3-.14-.14-1.31c-.1-1.13-.25-1.4-1.03-1.92-1-.67-1.78-.76-2.79-.3-.84.39-1.73 1.86-1.73 2.88v.78l-2.85-.17c-1.56-.1-4.84-.18-7.3-.2-4.08-.02-4.48-.06-4.82-.54a2.4 2.4 0 01-.38-1.2c0-1.01-1.64-2.38-2.84-2.38-.94 0-1.88 1.33-1.97 2.77l-.08 1.33-6.64.07c-6.27.07-6.66.04-7.1-.44-.36-.4-.4-.63-.17-1.05.36-.68-.04-1.7-1.16-2.9-.8-.85-.81-.94-.96-4.23l-.15-3.36-1.28-2.51c-1.7-3.37-5.72-8.47-6.66-8.47-.17 0-.67-.3-1.1-.66-.43-.36-1.02-.66-1.31-.66-.3 0-.94-.18-1.45-.39-.51-.21-1-.3-1.1-.22-.08.1-.43.04-.75-.12-1.87-.91-6.18-.96-8.85-.09-3.07 1-4.28 1.94-5.46 4.26-.88 1.74-1 2.21-1 3.87-.01 2.44.46 3.5 2.12 4.82 1.97 1.55 3.08 1.71 9.41 1.35 3.78-.22 5.3-.22 5.51-.01.16.16.6.29.98.29.89 0 4.88 1.18 5.51 1.64.27.19 1.24 1.02 2.16 1.86 1.64 1.49 1.68 1.56 2.15 3.7.68 3.09.68 3.1-.5 3.12-.54 0-3.84.07-7.32.15-7.25.17-8.06.02-9.67-1.75-1.05-1.15-5-3.28-6.22-3.34-.44-.03-1.66-.18-2.72-.35a18.3 18.3 0 00-8.89 1.06c-1.03.43-1.97.79-2.09.79-.11 0-.65.27-1.2.61-.53.35-1.96 1.18-3.16 1.86L95.7 54.7l-1.79-.25c-.98-.14-1.96-.26-2.18-.27-3.45-.1-7.75-.3-9.55-.42l-2.26-.16-.94.88c-.52.48-1.2 1.24-1.5 1.7-.38.56-.92.92-1.75 1.15l-1.2.34.63.73c.53.63.6.95.5 2.15-.15 1.64-.13 1.6-1.54 2.15-.96.37-1.17.37-1.89.02zm2.1-1.53c.5-.37.61-1.63.22-2.26-.2-.3-.32-.32-.64-.05-.22.18-.62.3-.88.25-.76-.13-.8 1.19-.05 1.88.69.64.74.65 1.35.18zM229 41.66c-.53-.43-2.08-3.01-2.08-3.46 0-.2-.3-.63-.65-.96-.56-.53-.82-.59-1.94-.44a4.51 4.51 0 01-4.45-2l-.69-1.09.6-1.08c.87-1.59 1.06-1.78 2.27-2.3l1.1-.47-.04-2.92c-.03-2.58-.1-3-.58-3.47-.46-.46-.67-.5-1.28-.28-1.03.4-2.4.35-3.54-.13-1.53-.63-1.7-1-1.05-2.45.6-1.37.59-1.31 1.04-4.62.31-2.26.3-2.34-.27-2.9-.57-.58-.7-.6-7.2-.56-4.78.03-6.72.13-7 .36-.22.18-.4.71-.4 1.19 0 .47-.33 1.5-.74 2.28-.78 1.5-1.65 2.04-3.36 2.07a4.04 4.04 0 01-2.89-1.64c-.37-.57-.36-.75.14-2.06.3-.8.7-1.63.9-1.84.2-.22.6-1.17.91-2.12.31-.95.67-1.96.8-2.25.14-.3.37-1.19.5-1.99.21-1.17.18-1.72-.19-2.78-.24-.72-.53-1.45-.63-1.62-.34-.52-1.96-.67-2.94-.26-1.6.67-1.68 1.33-.53 4.08.43 1.04.46 2.98.08 4.8-.33 1.53-1.67 2.93-2.8 2.93-.7 0-2.74-1.42-2.74-1.9 0-.15-.25-.61-.55-1.04-.38-.53-.77-.76-1.29-.76-.79 0-1.06.48-1.07 1.88 0 1.18-.54 1.39-3.25 1.22a65.62 65.62 0 00-6.01.04c-1.97.1-4.35.12-5.29.04l-1.72-.14-.46-2.22c-.49-2.4-1.05-3.53-1.62-3.31-.39.14-.97 1.22-.97 1.8 0 .18-.48 1.09-1.07 2l-1.07 1.66-2.05-.18c-1.84-.16-2.12-.12-2.76.39-.4.3-.72.66-.72.79 0 .44-1.56 2.54-3.03 4.07-1.26 1.31-1.54 1.49-1.89 1.2-.78-.65-1.43-2.32-1.43-3.67 0-2.34-.88-3.22-2.84-2.82-.88.17-12.32.7-15.55.71-2.12 0-2.34-.04-2.73-.6-.79-1.15-3.35-3.71-4.1-4.1-.96-.5-1.31-.21-1.87 1.5-.45 1.35-1.41 3.16-1.7 3.2-.29.03-18.62.29-19.56.28-.47-.01-1.07-.03-1.32-.06-.26-.02-1.54.01-2.86.07-1.84.07-2.56.22-3.17.63-.92.62-3.34 1.46-6.34 2.2-1.17.28-2.9.75-3.84 1.04-.95.3-2.53.72-3.51.96-.99.24-2.28.61-2.88.82-.6.21-1.43.39-1.84.39-.7 0-5.2 1.29-6.45 1.85-.3.13-1.01.28-1.6.34-1.09.11-9.96 2.11-11.39 2.57-.44.15-1.2.26-1.68.26-.47 0-1.18.17-1.57.37-.38.2-1.6.54-2.68.76-1.1.23-2.46.54-3.04.7-.89.25-7.5 1.34-8.14 1.35-.38 0-.2-.98.26-1.39 1.13-.99 5.58-2.59 9.75-3.5 1.1-.24 2.17-.64 3.95-1.45 3.2-1.48 3.5-1.6 4.06-1.6.3 0 .81-.1 1.15-.24.63-.24 4.06-1.2 5.9-1.65.58-.15 1.77-.5 2.64-.8.88-.3 2.84-.86 4.37-1.24 2.95-.75 3.52-1.21 2.26-1.88-.58-.32-.73-.3-1.18.1-.43.39-.6.4-1.12.13-.46-.25-2.13-.32-6.3-.27l-5.67.07-1 1.03c-1.84 1.9-5.33 3.11-7.16 2.48a9.43 9.43 0 01-3.03-1.78c-.54-.48-.92-.5-7.4-.34-3.76.08-7.1.23-7.43.32-.47.13-.98-.18-2.45-1.48-1.96-1.74-2.84-2.1-5.1-2.12-1.18 0-1.36.1-2.88 1.56-1.85 1.79-2.22 1.88-7.09 1.85-3.1-.03-3.98-.25-3.98-1.01 0-1 .9-1.18 3.14-.64 1.64.4 5.2.42 5.92.05.26-.14.46-.45.46-.71 0-.5 1.5-2.03 2.74-2.8.82-.5 1.68-.45 3.88.27 1.97.64 2.9 1.15 3.35 1.85.55.85 1.6 1.35 2.6 1.25.44-.04 2.1-.14 3.7-.22a57.6 57.6 0 004.64-.42c4.79-.75 5.51-.67 6.3.68a5.9 5.9 0 003.52 2.42c.5.09 1.57-.04 2.4-.29 1.22-.35 1.66-.64 2.3-1.52.45-.6.84-1.18.88-1.3.14-.42 2.7-.92 3.65-.72.5.1 3.36.13 6.35.04 8.98-.25 14.94-.16 14.94.23s.27.29-9 3.26c-3.92 1.26-7.43 2.4-7.8 2.53-.36.12-2.44.72-4.63 1.32-2.18.6-5.4 1.63-7.14 2.3a83.82 83.82 0 01-5.42 1.83c-3.48.98-4.29 1.28-4.2 1.56.23.64 5.84-.2 8.03-1.19a28.17 28.17 0 015.43-1.5l2.77-.52a22.8 22.8 0 003.05-.74c.5-.2 1.4-.44 1.98-.54.58-.1 1.42-.3 1.85-.42a158 158 0 012.38-.69c.88-.24 2.27-.66 3.1-.93.84-.27 1.82-.5 2.2-.5.37 0 1.38-.3 2.25-.65.86-.37 1.9-.67 2.3-.67.4-.01 1.4-.26 2.2-.55.8-.3 2.22-.72 3.17-.94.94-.22 2.37-.7 3.17-1.08.8-.37 1.71-.7 2.02-.74.32-.04.97-.24 1.46-.45 3.25-1.38 5.43-1.9 6.35-1.51.53.22 2.81.26 8.09.14 4.04-.09 8.86-.17 10.71-.18 3.24-.02 3.39-.05 4.04-.7.37-.37.67-.86.68-1.1 0-.23.18-.66.4-.94.66-.88.47-1.64-.57-2.28-.93-.58-.96-.63-.81-1.86.08-.7.34-1.65.58-2.1.4-.77.5-.83 1.4-.67 1.64.3 2.26.93 2.66 2.77.31 1.46.3 1.7-.07 2.11-.55.6-.54 1.06.04 1.28.85.33 2.27 1.4 3.25 2.46 1.13 1.23.32 1.16 9.65.8 3.49-.13 7.77-.16 9.5-.06l3.17.18.23.93c.13.5.35 1.06.49 1.22.13.16.27.85.3 1.52.03.74.17 1.22.36 1.22.4 0 2.2-2.2 2.87-3.52.28-.56.86-1.3 1.27-1.66.68-.56 1.02-.64 2.97-.64 2.13 0 2.23-.02 2.88-.8.38-.44.83-1.29 1-1.87a7.1 7.1 0 011.3-2.17c.85-.96 1.03-1.05 1.4-.74.24.2.44.64.44 1 0 .35.17 1.06.4 1.58.21.52.39 1.3.39 1.73 0 .46.26 1.02.65 1.42.63.63.76.65 4.17.61 1.93-.02 4.94-.1 6.69-.2l3.17-.16.14-.8c.19-1.15.79-1.85 1.9-2.22 1.42-.46 2.23.01 3.24 1.9.72 1.35.9 1.51 1.66 1.51 1.77.01 2.89-3.1 1.8-5.02a3.2 3.2 0 01-.4-1.27c0-.33-.19-.97-.42-1.42-.4-.78-.4-.85.5-2.29 1.17-1.88 1.87-2.15 3.8-1.5 1.7.58 2.1.98 2.45 2.52.55 2.4.05 6.01-1.15 8.33-.23.44-.42.97-.42 1.2 0 .21-.24.84-.53 1.38-.64 1.2-.67 2-.1 2.8.61.88 1.42 1.1 2.3.66.99-.51 1.36-1.4 1.1-2.65-.23-1.1-.18-2.23.1-2.52.1-.1 1.24-.25 2.55-.34 1.31-.09 3.16-.27 4.1-.4.95-.14 3.78-.26 6.28-.26h4.56l.44.66c.63.97.4 5.36-.38 7-.78 1.66-.74 2.3.2 2.78.62.32 1.05.34 2.16.13a5.7 5.7 0 011.87-.11c.5.16 1.1 1.89.97 2.85-.04.32.04.75.17.97.14.21.4 1.16.57 2.11.4 2.16.15 2.79-1.48 3.6-2.3 1.16-2.72 2.48-1.25 3.95.72.72 1.16.9 2.45 1.07.86.1 1.87.3 2.23.44 1.06.39 2.35 1.8 3.06 3.36.55 1.2.6 1.5.31 1.8-.28.28-.43.28-.76.01zM127.29 7.01c.23-.33.41-1.1.41-1.71 0-1.26-.45-1.67-1.8-1.67-1.1 0-1.46.54-1.24 1.87.32 1.9 1.77 2.73 2.63 1.5z"/>
</svg>
