<?xml version="1.0" encoding="utf-8"?>
<svg xmlns="http://www.w3.org/2000/svg" xmlns:svg="http://www.w3.org/2000/svg" version="1.1" viewBox="0 0 287 78">
  <title>A squiggly line marked A, B, CC CCC, D.</title>
  <path d="M269.49 77.28l-2.2-.94c-.47-.2-.94-.58-1.03-.83a3.87 3.87 0 00-.66-1.02c-.8-.89-1.43-6.7-.78-7.1.12-.07.43-.7.68-1.4 1.13-3.1 5.33-11.4 6.33-12.51.33-.36 1.07-1.4 1.64-2.32.57-.91 1.31-2.05 1.64-2.51.32-.47.76-1.23.97-1.67.21-.45.57-.97.8-1.16.23-.19.41-.43.41-.54 0-.11.52-1.14 1.15-2.29.63-1.14 1.23-2.39 1.32-2.77.1-.38.58-1.29 1.08-2.02.5-.73 1-1.79 1.1-2.35.19-.96.47-1.76 1.3-3.67a19.68 19.68 0 001.57-8.8c-.17-1.76-1.03-4.3-1.45-4.3-.12 0-.77-.47-1.44-1.05-1.09-.95-1.37-1.06-2.6-1.06-.85 0-1.71.19-2.3.5-.5.29-1.22.65-1.58.82-1.05.47-2.38 1.9-2.38 2.55 0 .33-.1.66-.23.73-.3.2-.13 5.94.2 6.34.14.17.4 1.14.56 2.16.16 1.01.4 2.08.52 2.37.33.82.8 3.89.8 5.3 0 1.86-.5 3.22-1.43 3.92-2.51 1.9-3.56 2.2-8.31 2.4-1.79.07-1.97.03-2.35-.54a1.69 1.69 0 01-.24-1.29c.1-.39 0-.98-.23-1.44-.22-.43-.53-1.37-.69-2.1-.5-2.31-1.36-2.38-2.34-.18a93.14 93.14 0 00-1.96 4.68c-.14.44-2.38.9-2.88.6-.15-.1-2.37-.22-4.93-.27-12-.27-12.98-.34-13.35-.92-.45-.7-.01-1.26 1.54-1.94.82-.37 2.39-1.47 3.52-2.48 1.12-1 2.21-1.9 2.43-2a24.76 24.76 0 008.2-8.7c.3-.54.66-.99.8-.99.13 0 .44-.39.68-.86.24-.47.64-1.1.89-1.39.9-1.04 2.09-5.08 2.17-7.33.06-1.87-.9-6.02-1.8-7.81a18.3 18.3 0 00-2.73-3.48c-2.43-2.46-5.7-4.25-8.16-4.46-5-.42-5.19-.41-8.04.49-1.5.47-2.91 1.01-3.14 1.2-.23.2-.57.36-.76.36-.18 0-.67.27-1.08.6-.41.32-1.24.89-1.85 1.25-1.42.85-4.1 3.53-4.45 4.45a31.7 31.7 0 00-1.9 11.82c.03 5.54.47 8.16 2.2 13.38.99 2.93 1.84 4.72 2.92 6.14.98 1.27 1.18 1.88.72 2.17-.14.09-2.14.02-4.45-.15-5.08-.37-9.72-.14-10.29.52-2.12 2.45-3 3.63-3 4 0 .24-.44.95-.97 1.57-.9 1.05-1.05 1.13-2 1-1.33-.18-1.74-.55-1.95-1.73a11.6 11.6 0 00-1.06-2.63 9.2 9.2 0 01-.9-2.04c0-.61-.31-.64-2.79-.28a21 21 0 01-3.43.26l-1.26-.1c-.32-.03-.2-1.16.2-1.87.64-1.11.5-2.52-.3-3.15-1.16-.92-2.28-.73-3.38.55s-1.1 1.28-.5 2.93c.3.85.36 1.35.18 1.53-.17.18-1.34.19-3.42.03-3.38-.25-3.82-.15-3.82.9 0 .99-.26 1.4-1.28 2.03-.76.47-1.35.6-2.82.59-2.39-.01-3.3-.45-3.96-1.92l-.52-1.15-8.61.15a1120 1120 0 00-13.96.33l-5.35.17-.3-.76a4.79 4.79 0 01-.11-2.1c.25-1.86.21-2.24-.27-2.77-.41-.46-1.54-.8-2.64-.82-.3 0-.97.5-1.53 1.14-.93 1.05-1 1.22-.84 2.32.09.66.18 1.55.2 1.99l.05.8-6.42-.08c-5.46-.06-6.41-.01-6.41.32 0 .2.12.45.26.54.4.25.32 1.4-.16 2.13-.23.36-.88.78-1.43.95-1.33.4-3.74.08-4.62-.6-.8-.63-1.72-2.33-1.72-3.16 0-.5-.11-.55-.86-.41-2.16.39-7.1.69-9.43.57-1.4-.07-6.71-.11-11.8-.1-5.1.02-15.28.01-22.63-.02l-13.36-.07-.73-.68c-.84-.8-.93-1.64-.24-2.27.61-.55 1.99-.57 2.44-.02.19.23.68.59 1.1.8.65.34.76.34.9 0 .08-.2 0-.64-.16-.95-.42-.77-.16-1.32.61-1.32.74 0 2.03-.93 2.03-1.47 0-.25-.42-.38-1.39-.44-1.3-.07-1.4-.12-1.47-.82-.08-.68-.16-.73-.86-.58-.6.13-.78.08-.78-.23 0-.65-.46-.75-1.2-.27-.8.52-1.15.3-1.6-1.02-.15-.46-.41-.88-.58-.93-.32-.11-1.2 1.7-.98 2.05.07.12-.09.48-.35.8-.46.57-.5.57-1.3.16-1.25-.64-1.44-.56-1.24.5.19 1.03.05 1.1-1.43.67-.7-.2-.9-.17-1.03.17-.09.23-.02.64.15.9.46.74.38 1.09-.4 1.7-1 .8-.6 1.19 1.2 1.19 1.57 0 2.15.3 2.15 1.1 0 .73-.77.97-3.73 1.15l-2.75.17-1.12-1.05c-.61-.58-2-1.66-3.1-2.4a16.94 16.94 0 00-5.41-2.56c-.64-.21-1.3-.48-1.46-.6-.72-.56-5.46-1.18-9.15-1.2-5.01-.03-5.95.31-8.97 3.24-2.96 2.88-4.29 4.01-4.52 3.87-.11-.07-4.4-.2-9.54-.28-5.14-.08-9.44-.2-9.56-.28-.46-.28-.2-1.17.47-1.6.63-.41 1.57-.45 9.75-.39 10.11.08 9.05.27 10.9-1.98a8.57 8.57 0 011.92-1.73c.52-.29 1.42-.8 2-1.15.59-.34 1.3-.63 1.6-.64.3-.01 1-.25 1.54-.53.83-.43 1.61-.51 4.88-.54 2.14-.01 4.49.1 5.21.27 3.81.85 7.7 2.18 8.47 2.9.3.27 1.25.87 2.12 1.34.87.46 1.95 1.13 2.4 1.47 1.05.8 1.58.79 2.12-.04.26-.4.68-.66 1.07-.66.8 0 .79-.3-.04-1.55-.38-.57-.6-1.2-.51-1.43.18-.47 1.63-1.07 2.01-.83.53.33 1.03-.48.86-1.39-.15-.82-.12-.89.53-.89.38 0 1.18.31 1.78.69.59.37 1.15.6 1.24.51.09-.09.42-.78.74-1.53.73-1.72 1.65-2.16 2.62-1.25.35.33.66.9.7 1.29.07.53.22.67.62.6 2.33-.38 2.32-.38 2.78.23.44.59.46.59 1.25.12.98-.57 1.8-.36 1.55.4-.08.3-.23.77-.32 1.06-.11.37-.02.57.33.68 1.73.55 1.73.55 1.29 1.63-.23.55-.7 1.24-1.07 1.54-.74.61-.83 1.05-.26 1.27.22.09.4.35.4.6 0 .37.17.4 1.13.22.61-.13 2.49-.2 4.16-.18 5.72.08 21.3.03 27.26-.1 3.27-.05 9.13-.13 13-.15l7.07-.05.54.64c.3.36.54.91.54 1.23.01.66 1.47 2.46 1.98 2.46.58 0 1.24-.97 1.73-2.56l.48-1.54 1.15.01a114.3 114.3 0 007.44.14l4.17-.02v-1c0-.56.17-1.24.38-1.53.22-.28.4-.83.4-1.22 0-.7 1.15-1.8 1.86-1.8.18 0 .72-.2 1.22-.43.79-.37 1.05-.38 2.15-.07.77.22 1.64.75 2.25 1.36.91.9 1 1.11 1 2.44 0 .8.08 1.47.2 1.48 1.32.17 18 .13 18.2-.04.3-.25 8.94-.38 9.33-.14.13.08.32.74.42 1.47.15 1.12.3 1.4.95 1.73 1.08.56 1.47.5 2.24-.33.5-.54.67-1 .67-1.87V41l3.64.08c2 .04 3.79-.02 3.98-.13.19-.12.27-.43.18-.71-.09-.28-.01-.77.17-1.1.17-.33.45-1.2.61-1.93l.3-1.33 1.44-.06c2.26-.09 4.04.37 5.15 1.33l.98.85-.41 1.19c-.28.8-.32 1.27-.14 1.45.16.17 1.66.24 3.8.2l3.52-.08.56 1.07c.3.6.56 1.27.56 1.5 0 .78.85 2.21 1.31 2.21.49 0 2.22-2.33 2.96-3.97.43-.97.45-.97 2.51-1.2 1.15-.13 3.95-.24 6.23-.24 2.28 0 4.24-.1 4.35-.22.18-.18-.27-1.2-1.36-3.1a3.34 3.34 0 01-.38-1.39c0-.4-.13-.73-.28-.73-.23 0-.51-.51-1.35-2.51a23.76 23.76 0 01-1.58-5.42c-.4-2.58-.42-7.68-.03-9.53l.54-2.51c.21-.97 1.1-2.86 3-6.4.9-1.66 4.27-4.84 6.4-6.03.9-.5 2.46-1.1 3.48-1.32 1.02-.24 2.2-.54 2.64-.67 2.22-.69 9.6-.11 11.93.92.76.34 1.74.69 2.17.79.8.17 2.7 1.86 3.93 3.47 1.33 1.75 3.6 6.34 3.96 8.05.6 2.8.48 5.72-.29 7.78-.36.96-.66 2.06-.66 2.44a6 6 0 01-1.33 2.74c-.09.07-.63.85-1.2 1.72-1.26 1.94-5.98 6.62-8.32 8.26-.94.66-1.96 1.42-2.25 1.7l-1.27 1.16c-1.29 1.15-.9 1.31 3.28 1.36 2.1.03 4.9.11 6.22.19l2.4.14.79-.85c.43-.46 1.2-1.42 1.7-2.12.5-.7 1.42-1.88 2.05-2.61.62-.73 1.25-1.62 1.38-1.97.13-.34.4-.63.6-.63.48 0 1.4 1.04 1.64 1.85.3.98 1.93 4.17 2.23 4.36.17.1.15.4-.04.82-.48 1.05.32 1.64 2.49 1.86 1.73.17 1.8.16 3.04-.76 2.51-1.85 2.57-1.95 2.58-5.16.01-2.12-.1-3.04-.41-3.63a18.75 18.75 0 01-1.91-7.67c0-2.78.76-4.62 2.84-6.79 1.41-1.47 1.93-1.83 3.24-2.22 3.98-1.19 7.83.34 8.86 3.52.73 2.23 1.1 6.68.75 9-.17 1.1-.43 2.32-.57 2.69-.15.37-.5 1.6-.8 2.74a27.55 27.55 0 01-1.29 3.76 12 12 0 00-.77 2c0 .15-.36.8-.8 1.44-.43.63-.79 1.24-.79 1.34 0 .1-.45.85-1 1.67-.54.8-1.04 1.6-1.12 1.74-.07.15-.8 1.29-1.62 2.52a78.02 78.02 0 00-3.26 5.35c-.23.4-1.02 1.53-1.76 2.51-.74 1-1.46 2.1-1.6 2.46-.14.37-.4.96-.6 1.32a84.61 84.61 0 01-2.6 4.77 6.27 6.27 0 00-.6 2.11c-.1.8-.35 1.72-.55 2.04-.2.33-.37 1.2-.37 1.94 0 2 .95 3.63 2.94 5.07.95.7 1.35.8 2.85.83.96.01 2.06-.05 2.45-.14 1.07-.25 4.2-2.46 4.98-3.52.22-.29.7-.83 1.08-1.19.9-.86 1.61-2.1 2.44-4.23.88-2.3 1.22-7.13.6-8.61a5.76 5.76 0 01-.4-1.83c0-.82-.86-1.9-1.86-2.37-.22-.1-.68-.34-1.04-.54-.58-.34-.72-.3-1.58.34-.52.38-1.05.85-1.16 1.03a.77.77 0 01-.58.34c-1.44 0-3.15 3.54-3.15 6.55 0 2.07.64 2.87 2.5 3.13 1.16.16 1.22.13 1.91-.87.99-1.43.95-1.93-.16-1.93-.74 0-.96-.16-1.45-1.03-.69-1.22-.7-1.45-.17-1.99.55-.56 1.9-.28 2.83.59.62.58.73.88.73 2.13 0 2.42-1.59 4.79-3.22 4.8-.76 0-3.18-1.41-3.4-1.98l-.52-1.56c-.57-1.8.23-5.68 1.32-6.45.29-.2.53-.59.53-.86s.67-1.09 1.49-1.82c1.1-.99 1.83-1.4 2.79-1.61 2.42-.52 3.1-.28 5 1.76 1.13 1.2 1.23 1.42 1.4 3.1.1 1 .3 2.04.45 2.32.15.27.28 1.53.3 2.8.01 2.16-.05 2.42-.95 4.12-.53 1-.96 2.03-.96 2.3 0 .81-1.24 2.88-2.3 3.86-.56.5-1.5 1.39-2.11 1.97a10.51 10.51 0 01-6.7 2.76c-1.92.13-2.45.07-3.57-.41zM126.2 34.4c-1.13-.5-2.11-1.66-2.1-2.45.01-1.81 1.71-3.6 3.42-3.6.38 0 .83-.14 1-.3.43-.44 2.88-.36 3.6.11.87.57 1.04 1.43.42 2.06-.7.69-1.43.64-2.05-.16-.63-.79-.84-.8-2.11-.16-1.2.62-1.81 1.27-2.04 2.18-.22.85.12.98 3.4 1.2 2.31.17 3.02.52 2.36 1.18-.46.46-4.83.42-5.9-.06zm17.27-.14c-.5-.2-.4-2.18.17-3.4.86-1.86 2-2.66 4.25-2.99a8.85 8.85 0 012.18-.16c.3.19.26 1.1-.06 1.71-.33.62-.82.64-1.87.1-.74-.38-.84-.37-1.59.16-.95.68-2.09 2.4-2.09 3.16 0 .3.2.62.44.71.36.14 2.68-.08 4.99-.48.4-.08.52.05.52.57v.66l-3.3.05c-1.82.02-3.46-.02-3.64-.1zm36.8-.9c-.73-.28-1.15-1.04-1.15-2.1 0-.65.3-1.1 1.44-2.17 2.36-2.23 4.27-2.62 5.68-1.17 1.43 1.47.63 2.67-1 1.5-.43-.3-.95-.55-1.17-.55-.55 0-2.04 1.76-2.04 2.4 0 .77.46.84 2.53.4 1.64-.34 1.88-.34 2.3.03.32.3.38.54.2.89-.2.37-.74.5-2.58.64-1.27.1-2.61.2-2.98.25-.36.05-.92-.01-1.24-.13zm28.18-.33c-1.24-.57-1.81-1.27-1.81-2.2 0-1.47 2.8-3.47 4.92-3.52 1.16-.03 2.27.9 2.17 1.8-.1.78-.57.85-2 .26-.83-.34-.88-.32-1.91.76a5.14 5.14 0 00-1.07 1.37c0 .52.84.7 2.33.52 2.77-.35 3.5-.3 3.5.26 0 .41-.27.52-1.53.65-.83.08-2.05.21-2.7.29-.7.08-1.5 0-1.9-.19zm-11.83-.36c-.88-.38-.9-.41-.74-1.63.15-1.12.35-1.42 2.17-3.16 1.77-1.68 2.14-1.92 3-1.92 1.23 0 2.15.87 2.15 2.02 0 1.42-1.23 1.93-2.1.86-.6-.75-1.3-.5-2.35.8-.8 1-.8 1.04-.33 1.47.36.32.97.44 2.3.44 2.12-.01 2.74.13 2.74.63 0 .59-.37.68-3.23.78-2 .08-2.96 0-3.61-.29zm-6.21-3.7c-.36-.37-.16-1.1.34-1.23.62-.16 1.2.43.98 1-.16.4-1 .54-1.32.22zM63.58 27.8c-.73-.3-2.35-.33-4.52-.1-1.11.11-1.78.07-1.97-.13-.49-.48.12-.86 1.7-1.05l1.41-.17.22-1.59c.11-.87.25-2.12.3-2.78.05-.65.17-1.52.28-1.93.11-.43.07-1.03-.1-1.4-.23-.51-.49-.63-1.32-.63-1.12 0-1.92-.59-1.31-.96.18-.12 1.7-.23 3.38-.25 1.68-.02 3.53-.12 4.1-.2 1.7-.26 2.52.7 2.52 2.93 0 .97-.14 1.43-.53 1.78-.29.27-.53.59-.53.72s.48.86 1.06 1.63a5.43 5.43 0 011.06 1.96c0 .36-.45.9-1.23 1.5-1.05.8-1.43.94-2.58.92-.74 0-1.61-.12-1.94-.25zm3.26-1.67c.6-.7.61-.78.23-1.51-.5-1-1.44-1.6-2.84-1.86a7.23 7.23 0 00-1.16-.16c-.13.13-.57 4-.48 4.16.06.1.9.16 1.86.14 1.58-.03 1.83-.11 2.4-.77zm-.5-4.99c.33-.31.6-.8.6-1.07 0-1.32-2.9-2.62-3.62-1.63-.19.26-.34.97-.34 1.59 0 .98.09 1.15.73 1.38 1.17.43 1.97.35 2.63-.27zm-39.1 5.49c-.36-.37-.3-1 .17-1.68.33-.46.67-.58 1.67-.58 1.67 0 1.88-.24 5.33-5.83.49-.8 1.17-1.79 1.5-2.2.34-.41.61-.98.61-1.26 0-.52.6-.66 1.44-.34.52.2 1.2 1.45 1.2 2.2 0 .3.41 1.78.91 3.28.5 1.5 1 3.18 1.1 3.72.14.79.37 1.08 1.22 1.5.7.37 1.01.69.95.99-.06.3-.27.4-.61.33a27.2 27.2 0 00-3.03-.13c-1.39-.01-2.67-.12-2.86-.24-.54-.35.14-.97 1.07-.97h.8l-.12-1.59c-.07-.87-.27-1.74-.45-1.92-.19-.19-1.04-.32-2.07-.32-1.42 0-1.8.09-2.03.5-.17.27-.57.83-.91 1.25l-.62.76.8.8c.44.44.75.96.67 1.15-.16.43-6.35.96-6.73.58zm10.4-6.56c-.03-.11-.06-.63-.06-1.15 0-.86-.06-.93-.71-.86-.52.06-.8.32-1.06.95-.33.82-.32.89.24 1.12.68.28 1.7.24 1.6-.06zm106.72 4.47c-.7-.56-.75-.7-.58-1.77.31-1.95.83-2.17 3.47-1.47 1.07.28 1.34.46 1.41.98.05.34.27.83.5 1.08.22.25.33.64.25.86-.23.6-1.21.5-1.77-.19l-.5-.6-.79.87c-.43.47-.89.86-1 .86-.12 0-.56-.28-.99-.62zm88.23-4.13c-.22-.41-.15-.6.4-1.04a4.3 4.3 0 011.44-.7c.64-.13.81-.34.96-1.14.23-1.23.23-5.17 0-5.55-.1-.16-.56-.22-1.06-.14-.64.1-.92.04-1.04-.26-.34-.89.56-1.1 4.42-1.1l3.73.02 1.35.88c.74.49 1.5 1.12 1.67 1.4.18.3.4 1.57.48 2.85l.15 2.33-1.3 1.22-1.3 1.22-3.03-.03c-1.68-.02-3.69.1-4.47.26-1.9.4-2.08.38-2.4-.22zm7.82-1.6c.43 0 .73-.38 1.28-1.6.6-1.36.69-1.8.53-3.02-.22-1.8-.67-2.22-2.65-2.42l-1.57-.16v3.47c0 3.7.16 4.16 1.32 3.87.3-.07.78-.14 1.1-.14z"/>
</svg>
