<?xml version="1.0" encoding="utf-8"?>
<svg xmlns="http://www.w3.org/2000/svg" xmlns:svg="http://www.w3.org/2000/svg" version="1.1" viewBox="0 0 1400 640">
	<title>The titlepage for the Standard Ebooks edition of The Life and Opinions of Tristram Shandy, Gentleman, by Laurence Sterne</title>
	<g aria-label="THE">
		<path d="m 605.10526,68.245613 h 18.33918 V 130 h 17.59065 V 68.245613 h 18.33918 V 52.807016 h -54.26901 z"/>
		<path d="M 688.29971,99.029239 H 713.1886 V 130 h 17.59064 V 52.807016 H 713.1886 V 83.590642 H 688.29971 V 52.807016 H 670.70906 V 130 h 17.59065 z"/>
		<path d="M 791.14474,52.807016 H 746.981 V 130 h 44.16374 v -15.4386 h -26.5731 V 99.029239 h 25.45029 V 83.590642 H 764.57164 V 68.245613 h 26.5731 z"/>
	</g>
	<g aria-label="LIFE AND OPINIONS">
		<path d="M 203.39838,152.80702 H 185.80774 V 230 h 44.16374 v -15.4386 h -26.5731 z"/>
		<path d="M 261.21271,152.80702 H 243.62207 V 230 h 17.59064 z"/>
		<path d="M 322.12792,152.80702 H 277.49634 V 230 h 17.59064 v -30.97076 h 24.98246 v -15.4386 h -24.98246 v -15.34503 h 27.04094 z"/>
		<path d="M 379.65715,152.80702 H 335.49341 V 230 h 44.16374 v -15.4386 h -26.5731 v -15.53216 h 25.4503 v -15.4386 h -25.4503 v -15.34503 h 26.5731 z"/>
		<path d="M 464.5592,152.80702 H 448.2785 L 417.12061,230 h 18.90058 l 5.7076,-15.4386 h 29.38012 L 476.81651,230 h 18.90059 z m 0.56141,46.31579 H 447.7171 l 8.60818,-22.45614 h 0.18714 z"/>
		<path d="m 521.22733,182.09357 h 0.18714 L 552.10453,230 h 17.59064 v -77.19298 h -17.59064 v 47.90643 h -0.18714 L 521.22733,152.80702 H 503.63669 V 230 h 17.59064 z"/>
		<path d="M 585.93933,152.80702 V 230 h 22.36258 c 21.23976,0 38.92397,-16.09357 38.92397,-38.64328 0,-22.45614 -17.77778,-38.5497 -38.92397,-38.5497 z m 17.59065,61.47368 v -45.75439 h 2.71345 c 13.09941,0 21.9883,10.0117 21.9883,22.92398 -0.0936,12.91228 -8.98246,22.83041 -21.9883,22.83041 z"/>
		<path d="m 687.14107,191.35672 c 0,22.54971 16.09357,40.04679 38.92398,40.04679 22.17544,0 38.83041,-17.49708 38.83041,-40.04679 0,-22.5497 -17.40351,-39.95321 -38.83041,-39.95321 -21.23977,0 -38.92398,17.40351 -38.92398,39.95321 z m 18.99415,0 c 0,-11.50877 6.36258,-23.01754 19.92983,-23.01754 13.66082,0 19.83626,11.50877 19.83626,23.01754 0,11.50878 -5.80117,23.01755 -19.83626,23.01755 -14.40936,0 -19.92983,-11.50877 -19.92983,-23.01755 z"/>
		<path d="M 777.65717,152.80702 V 230 h 17.59064 v -28.63158 h 10.5731 c 15.06433,0 26.38597,-8.88889 26.38597,-24.79532 0,-16 -11.32164,-23.76608 -26.38597,-23.76608 z m 17.59064,34.52631 V 166.8421 h 4.95906 c 6.92398,0 13.47369,2.33919 13.47369,10.2924 0,7.85965 -6.54971,10.19883 -13.47369,10.19883 z"/>
		<path d="M 862.56507,152.80702 H 844.97443 V 230 h 17.59064 z"/>
		<path d="m 896.43934,182.09357 h 0.18713 L 927.31653,230 h 17.59065 v -77.19298 h -17.59065 v 47.90643 H 927.1294 L 896.43934,152.80702 H 878.84869 V 230 h 17.59065 z"/>
		<path d="M 978.74195,152.80702 H 961.15131 V 230 h 17.59064 z"/>
		<path d="m 991.56359,191.35672 c 0,22.54971 16.09361,40.04679 38.92401,40.04679 22.1754,0 38.8304,-17.49708 38.8304,-40.04679 0,-22.5497 -17.4035,-39.95321 -38.8304,-39.95321 -21.2398,0 -38.92401,17.40351 -38.92401,39.95321 z m 18.99411,0 c 0,-11.50877 6.3626,-23.01754 19.9299,-23.01754 13.6608,0 19.8362,11.50877 19.8362,23.01754 0,11.50878 -5.8011,23.01755 -19.8362,23.01755 -14.4094,0 -19.9299,-11.50877 -19.9299,-23.01755 z"/>
		<path d="m 1099.6704,182.09357 h 0.1871 L 1130.5475,230 h 17.5907 v -77.19298 h -17.5907 v 47.90643 h -0.1871 l -30.69,-47.90643 h -17.5907 V 230 h 17.5907 z"/>
		<path d="m 1190.9993,151.40351 c -12.4445,0 -25.1696,9.16959 -25.1696,23.57895 0,8.04678 5.4269,15.25146 14.69,19.83625 9.1696,4.5848 17.4035,7.11111 17.4035,12.72515 0,7.20468 -7.2982,7.57895 -11.1345,7.57895 -8.6082,0 -18.9006,-8.70176 -18.9006,-8.70176 l -8.7953,14.78363 c 0,0 10.9474,10.19883 29.0059,10.19883 15.0643,0 29.0994,-6.45614 29.0994,-24.88889 0,-10.10526 -9.4503,-17.40351 -18.0585,-21.05263 -8.7953,-3.74269 -16.0936,-6.83041 -16.0936,-11.13451 0,-4.21052 3.1813,-6.92397 9.1696,-6.92397 7.9532,0 15.6258,5.33333 15.6258,5.33333 l 7.1111,-14.03509 c 0,0 -9.9182,-7.29824 -23.9532,-7.29824 z"/>
	</g>
	<g aria-label="OF TRISTRAM">
		<path d="m 352.77339,291.35672 c 0,22.54971 16.09356,40.04679 38.92397,40.04679 22.17544,0 38.83041,-17.49708 38.83041,-40.04679 0,-22.5497 -17.40351,-39.95321 -38.83041,-39.95321 -21.23976,0 -38.92397,17.40351 -38.92397,39.95321 z m 18.99415,0 c 0,-11.50877 6.36257,-23.01754 19.92982,-23.01754 13.66082,0 19.83626,11.50877 19.83626,23.01754 0,11.50878 -5.80117,23.01755 -19.83626,23.01755 -14.40935,0 -19.92982,-11.50877 -19.92982,-23.01755 z"/>
		<path d="M 487.92105,252.80702 H 443.28947 V 330 h 17.59064 v -30.97076 h 24.98246 v -15.4386 h -24.98246 v -15.34503 h 27.04094 z"/>
		<path d="m 522.43714,268.24561 h 18.33918 V 330 h 17.59064 v -61.75439 h 18.33918 v -15.43859 h -54.269 z"/>
		<path d="M 588.04093,252.80702 V 330 h 17.59065 V 299.49708 L 629.21052,330 H 651.5731 L 625,298.09357 c 9.45029,-2.99416 15.81286,-10.76024 15.81286,-22.36258 0,-15.15789 -10.8538,-22.92397 -25.16959,-22.92397 z m 17.59065,34.24561 V 266.8421 h 2.05847 c 6.64328,0 14.5965,0.46784 14.5965,10.10527 0,9.63742 -7.95322,10.10526 -14.5965,10.10526 z"/>
		<path d="M 677.70029,252.80702 H 660.10964 V 330 h 17.59065 z"/>
		<path d="m 720.60087,251.40351 c -12.44444,0 -25.16959,9.16959 -25.16959,23.57895 0,8.04678 5.4269,15.25146 14.69006,19.83625 9.16959,4.5848 17.40351,7.11111 17.40351,12.72515 0,7.20468 -7.29825,7.57895 -11.13451,7.57895 -8.60818,0 -18.90058,-8.70176 -18.90058,-8.70176 l -8.79532,14.78363 c 0,0 10.94737,10.19883 29.00585,10.19883 15.06432,0 29.09941,-6.45614 29.09941,-24.88889 0,-10.10526 -9.45029,-17.40351 -18.05848,-21.05263 -8.79532,-3.74269 -16.09357,-6.83041 -16.09357,-11.13451 0,-4.21052 3.18129,-6.92397 9.16959,-6.92397 7.95322,0 15.62574,5.33333 15.62574,5.33333 l 7.11111,-14.03509 c 0,0 -9.91813,-7.29824 -23.95322,-7.29824 z"/>
		<path d="m 750.58771,268.24561 h 18.33918 V 330 h 17.59065 v -61.75439 h 18.33918 v -15.43859 h -54.26901 z"/>
		<path d="M 816.19152,252.80702 V 330 h 17.59064 V 299.49708 L 857.36111,330 h 22.36258 l -26.5731,-31.90643 c 9.45029,-2.99416 15.81286,-10.76024 15.81286,-22.36258 0,-15.15789 -10.8538,-22.92397 -25.16959,-22.92397 z m 17.59064,34.24561 V 266.8421 h 2.05848 c 6.64328,0 14.5965,0.46784 14.5965,10.10527 0,9.63742 -7.95322,10.10526 -14.5965,10.10526 z"/>
		<path d="m 927.46489,252.80702 h -16.2807 L 880.0263,330 h 18.90058 l 5.70761,-15.4386 H 934.0146 L 939.72221,330 h 18.90058 z m 0.56141,46.31579 h -17.40351 l 8.60819,-22.45614 h 0.18713 z"/>
		<path d="m 1030.3552,330 h 17.5907 l -6.924,-77.19298 h -18.7134 l -17.1228,44.53801 -17.12285,-44.53801 H 969.3494 L 962.42542,330 h 17.59065 l 3.64912,-45.75439 h 0.46783 l 15.81287,45.28655 h 10.47951 l 15.8129,-45.28655 h 0.4678 z"/>
	</g>
	<g aria-label="SHANDY, GENTLEMAN">
		<path d="m 158.05701,351.40351 c -12.44445,0 -25.16959,9.16959 -25.16959,23.57895 0,8.04678 5.4269,15.25146 14.69006,19.83625 9.16959,4.5848 17.40351,7.11111 17.40351,12.72515 0,7.20468 -7.29825,7.57895 -11.13451,7.57895 -8.60818,0 -18.90058,-8.70176 -18.90058,-8.70176 l -8.79532,14.78363 c 0,0 10.94736,10.19883 29.00584,10.19883 15.06433,0 29.09942,-6.45614 29.09942,-24.88889 0,-10.10526 -9.45029,-17.40351 -18.05848,-21.05263 -8.79532,-3.74269 -16.09357,-6.83041 -16.09357,-11.13451 0,-4.21052 3.18129,-6.92397 9.16959,-6.92397 7.95322,0 15.62573,5.33333 15.62573,5.33333 l 7.11112,-14.03509 c 0,0 -9.91813,-7.29824 -23.95322,-7.29824 z"/>
		<path d="m 215.0687,399.02924 h 24.88889 V 430 h 17.59064 v -77.19298 h -17.59064 v 30.78362 H 215.0687 V 352.80702 H 197.47806 V 430 h 17.59064 z"/>
		<path d="m 312.95468,352.80702 h -16.2807 L 265.51608,430 h 18.90059 l 5.7076,-15.4386 h 29.38012 L 325.21199,430 h 18.90058 z m 0.5614,46.31579 h -17.40351 l 8.60819,-22.45614 h 0.18713 z"/>
		<path d="m 369.62281,382.09357 h 0.18713 L 400.5,430 h 17.59065 V 352.80702 H 400.5 v 47.90643 h -0.18713 L 369.62281,352.80702 H 352.03217 V 430 h 17.59064 z"/>
		<path d="M 434.33479,352.80702 V 430 h 22.36258 c 21.23976,0 38.92397,-16.09357 38.92397,-38.64328 0,-22.45614 -17.77777,-38.5497 -38.92397,-38.5497 z m 17.59065,61.47368 v -45.75439 h 2.71345 c 13.09941,0 21.9883,10.0117 21.9883,22.92398 -0.0936,12.91228 -8.98246,22.83041 -21.9883,22.83041 z"/>
		<path d="m 491.58626,352.80702 28.44444,42.5731 V 430 h 17.59064 v -34.61988 l 28.44445,-42.5731 h -21.1462 l -16.09357,24.70175 -16.09356,-24.70175 z"/>
		<path d="m 577.62573,409.97661 c -5.89474,0 -10.66667,4.77193 -10.66667,10.76023 0,4.95907 3.46199,8.70176 8.04678,9.82456 -1.49707,7.76609 -7.11111,13.09942 -7.11111,13.09942 l 4.77193,3.92982 c 7.67252,-6.36257 15.7193,-15.53216 15.7193,-26.8538 0,-5.9883 -4.77193,-10.76023 -10.76023,-10.76023 z"/>
		<path d="m 705.05701,386.77193 h -35.64912 v 13.56725 h 17.77778 c 0,9.45029 -8.32749,14.87719 -16.74854,14.87719 -10.8538,0 -19.64912,-10.66666 -19.64912,-23.76608 0,-13.38012 8.79532,-24.14035 19.64912,-24.14035 6.83041,0 12.72515,2.71345 17.21638,9.91813 l 11.50877,-12.63158 c -6.73684,-8.14035 -16.18714,-13.19298 -29.75439,-13.19298 -21.7076,0 -37.61403,17.87134 -37.61403,40.04678 0,22.08187 16.8421,39.95322 37.61403,39.95322 15.1579,0 31.4386,-8.32749 35.64912,-27.88304 z"/>
		<path d="M 761.90497,352.80702 H 717.74123 V 430 h 44.16374 v -15.4386 h -26.5731 v -15.53216 h 25.45029 v -15.4386 h -25.45029 v -15.34503 h 26.5731 z"/>
		<path d="m 794.60818,382.09357 h 0.18713 L 825.48537,430 h 17.59064 v -77.19298 h -17.59064 v 47.90643 h -0.18714 L 794.60818,352.80702 H 777.01753 V 430 h 17.59065 z"/>
		<path d="m 849.88598,368.24561 h 18.33918 V 430 h 17.59065 v -61.75439 h 18.33918 v -15.43859 h -54.26901 z"/>
		<path d="M 933.0804,352.80702 H 915.48976 V 430 h 44.16374 v -15.4386 h -26.5731 z"/>
		<path d="M 1017.4678,352.80702 H 973.30409 V 430 h 44.16371 v -15.4386 h -26.57306 v -15.53216 h 25.45026 v -15.4386 h -25.45026 v -15.34503 h 26.57306 z"/>
		<path d="m 1096.3933,430 h 17.5906 l -6.924,-77.19298 h -18.7134 l -17.1228,44.53801 -17.1228,-44.53801 h -18.7135 L 1028.4634,430 h 17.5907 l 3.6491,-45.75439 h 0.4678 l 15.8129,45.28655 h 10.4795 l 15.8129,-45.28655 h 0.4678 z"/>
		<path d="m 1165.2354,352.80702 h -16.2807 L 1117.7968,430 h 18.9006 l 5.7076,-15.4386 h 29.3801 L 1177.4927,430 h 18.9006 z m 0.5614,46.31579 h -17.4035 l 8.6082,-22.45614 h 0.1871 z"/>
		<path d="m 1221.9035,382.09357 h 0.1872 L 1252.7807,430 h 17.5907 v -77.19298 h -17.5907 v 47.90643 h -0.1871 l -30.6901,-47.90643 h -17.5906 V 430 h 17.5906 z"/>
	</g>
	<g aria-label="LAURENCE STERNE">
		<path d="M 341.73739,532.10526 H 328.54441 V 590 h 33.12281 v -11.57895 h -19.92983 z"/>
		<path d="M 403.65516,532.10526 H 391.44463 L 368.07621,590 h 14.17544 l 4.2807,-11.57895 h 22.03509 L 412.84814,590 h 14.17544 z m 0.42105,34.73685 H 391.02358 L 397.47972,550 h 0.14035 z"/>
		<path d="m 478.7045,532.10526 h -13.19298 v 33.47369 c 0,9.68421 -2.94737,12.49123 -9.40351,12.49123 -6.45614,0 -9.40351,-2.80702 -9.40351,-12.49123 v -33.47369 h -13.19298 v 37.33334 c 0,14.31579 7.85965,21.61403 22.59649,21.61403 14.73684,0 22.59649,-7.29824 22.59649,-21.61403 z"/>
		<path d="M 491.43366,532.10526 V 590 h 13.19299 V 567.12281 L 522.31086,590 h 16.77193 l -19.92983,-23.92982 c 7.08772,-2.24562 11.85965,-8.07018 11.85965,-16.77193 0,-11.36842 -8.14035,-17.19299 -18.87719,-17.19299 z m 13.19299,25.68421 v -15.15789 h 1.54385 c 4.98246,0 10.94737,0.35088 10.94737,7.57895 0,7.22807 -5.96491,7.57894 -10.94737,7.57894 z"/>
		<path d="m 579.85801,532.10526 h -33.1228 V 590 h 33.1228 v -11.57895 h -19.92982 v -11.64912 h 19.08772 v -11.57895 h -19.08772 v -11.50877 h 19.92982 z"/>
		<path d="m 605.6354,554.07018 h 0.14035 L 628.7933,590 h 13.19298 V 532.10526 H 628.7933 v 35.92983 h -0.14035 L 605.6354,532.10526 H 592.44242 V 590 h 13.19298 z"/>
		<path d="m 684.03344,578.07018 c -13.26316,0 -19.08772,-9.26316 -19.08772,-17.05264 0,-7.71929 5.82456,-16.98245 19.08772,-16.98245 6.73684,0 11.36842,3.57895 11.36842,3.57895 l 5.61403,-11.22807 c 0,0 -6.45614,-5.33334 -19.01754,-5.33334 -16.42105,0 -31.36842,13.47369 -31.36842,30.10527 0,16.5614 15.01754,29.89473 31.36842,29.89473 12.5614,0 19.01754,-5.33333 19.01754,-5.33333 l -5.61403,-11.22807 c 0,0 -4.63158,3.57895 -11.36842,3.57895 z"/>
		<path d="M 744.25493,532.10526 H 711.13212 V 590 h 33.12281 V 578.42105 H 724.3251 v -11.64912 h 19.08772 V 555.19298 H 724.3251 v -11.50877 h 19.92983 z"/>
		<path d="m 800.99069,531.05263 c -9.33333,0 -18.87719,6.8772 -18.87719,17.68421 0,6.03509 4.07017,11.4386 11.01754,14.8772 6.87719,3.43859 13.05263,5.33333 13.05263,9.54385 0,5.40351 -5.47368,5.68422 -8.35087,5.68422 -6.45615,0 -14.17544,-6.52632 -14.17544,-6.52632 l -6.59649,11.08772 c 0,0 8.21052,7.64912 21.75438,7.64912 11.29825,0 21.82456,-4.8421 21.82456,-18.66666 0,-7.57895 -7.08772,-13.05264 -13.54386,-15.78948 -6.59649,-2.80702 -12.07017,-5.12281 -12.07017,-8.35088 0,-3.15789 2.38596,-5.19298 6.87719,-5.19298 5.96491,0 11.7193,4 11.7193,4 l 5.33333,-10.52631 c 0,0 -7.43859,-5.47369 -17.96491,-5.47369 z"/>
		<path d="m 824.7308,543.68421 h 13.75438 V 590 h 13.19299 v -46.31579 h 13.75438 V 532.10526 H 824.7308 Z"/>
		<path d="M 908.30644,532.10526 H 875.18363 V 590 h 33.12281 v -11.57895 h -19.92983 v -11.64912 h 19.08772 v -11.57895 h -19.08772 v -11.50877 h 19.92983 z"/>
		<path d="M 920.89091,532.10526 V 590 h 13.19298 V 567.12281 L 951.7681,590 h 16.77193 l -19.92982,-23.92982 c 7.08771,-2.24562 11.85964,-8.07018 11.85964,-16.77193 0,-11.36842 -8.14035,-17.19299 -18.87719,-17.19299 z m 13.19298,25.68421 v -15.15789 h 1.54386 c 4.98246,0 10.94737,0.35088 10.94737,7.57895 0,7.22807 -5.96491,7.57894 -10.94737,7.57894 z"/>
		<path d="m 989.3854,554.07018 h 0.14035 L 1012.5433,590 h 13.193 v -57.89474 h -13.193 v 35.92983 h -0.1404 L 989.3854,532.10526 H 976.19242 V 590 h 13.19298 z"/>
		<path d="m 1072.2922,532.10526 h -33.1228 V 590 h 33.1228 v -11.57895 h -19.9298 v -11.64912 h 19.0877 v -11.57895 h -19.0877 v -11.50877 h 19.9298 z"/>
	</g>
</svg>
